<svg width="155" height="40" viewBox="0 0 155 40" fill="none" xmlns="http://www.w3.org/2000/svg">
<path d="M11.389 3.5459H14.6644C14.7274 3.5459 14.7894 3.5653 14.8413 3.6011L35.5373 17.8173C35.6222 17.8757 35.6728 17.9719 35.6728 18.0752V20.3438C35.6728 20.5959 35.3904 20.7447 35.1825 20.602L11.2118 4.1179C10.9581 3.9433 11.0814 3.5459 11.389 3.5459ZM55.9327 24.2751H54.5792L52.2593 28.983L49.9387 24.2751H48.481V25.328L51.2622 30.8343L49.1802 34.5345V35.5877H50.593L55.9327 25.2683V24.2751ZM53.821 5.2312H57.2419V3.5459H48.4216V5.2312H51.8426V14.8288H53.821V5.2312ZM59.0819 13.7155C59.6768 14.578 60.5244 15.0093 61.6252 15.0093C62.6565 15.0093 63.4841 14.6281 64.1094 13.8663C64.734 13.1042 65.0461 12.1613 65.0461 11.038C65.0461 9.915 64.7388 8.9766 64.1246 8.2245C63.509 7.4724 62.6765 7.0963 61.6252 7.0963C60.5141 7.0963 59.6616 7.5376 59.067 8.4204L58.9331 7.2764H57.282V18.5894H59.0819V13.7155ZM59.6468 12.7074C59.2701 12.2365 59.0819 11.6797 59.0819 11.038C59.0819 10.3959 59.2701 9.8391 59.6468 9.3678C60.0138 8.9169 60.5193 8.6909 61.1642 8.6909C61.8579 8.6909 62.3741 8.9217 62.711 9.383C63.0581 9.8546 63.2314 10.4059 63.2314 11.038C63.2314 11.6797 63.0581 12.2365 62.711 12.7074C62.3637 13.1794 61.8482 13.4144 61.1642 13.4144C60.5293 13.4144 60.0235 13.1794 59.6468 12.7074ZM70.9752 13.7904L71.1389 14.8288H72.6857V10.1955C72.6857 9.1825 72.4123 8.413 71.8674 7.8862C71.3222 7.3597 70.5233 7.0963 69.4726 7.0963C69.0662 7.0963 68.6924 7.1444 68.3496 7.2396C68.0075 7.3349 67.7376 7.442 67.5394 7.5627C67.3412 7.6828 67.165 7.8213 67.0113 7.9762C66.8573 8.1325 66.7605 8.2396 66.7208 8.2994C66.6811 8.3604 66.6514 8.4104 66.6317 8.4501V9.4433H67.9109L67.941 9.3978C67.9606 9.3678 67.9878 9.3304 68.0223 9.2855C68.0572 9.24 68.1017 9.1874 68.1563 9.1273C68.2108 9.0673 68.2802 9.0069 68.3645 8.9469C68.4487 8.8862 68.5404 8.8336 68.6401 8.789C68.7389 8.7442 68.8558 8.7058 68.9897 8.6757C69.1234 8.646 69.2696 8.6312 69.4281 8.6312C70.3897 8.6312 70.8713 9.137 70.8713 10.1499V10.5567L70.6779 10.5112C70.5385 10.4811 70.3377 10.4514 70.075 10.4208C69.8122 10.3911 69.5569 10.3759 69.3093 10.3759C68.2679 10.3759 67.4897 10.5835 66.9742 11.0002C66.458 11.4163 66.2005 11.9702 66.2005 12.6623C66.2005 13.3043 66.4087 13.8563 66.8247 14.3169C67.2421 14.7785 67.8664 15.0093 68.6995 15.0093C69.6708 15.0093 70.4294 14.6029 70.9752 13.7904ZM67.9855 12.5719C67.9855 11.9105 68.4465 11.5796 69.3687 11.5796C69.9536 11.5796 70.4549 11.6393 70.8713 11.7597V12.1209C70.8713 12.4818 70.7147 12.8127 70.4026 13.1132C70.0901 13.4144 69.6708 13.5651 69.1456 13.5651C68.3716 13.5651 67.9855 13.2342 67.9855 12.5719ZM76.504 11.73H79.6871V14.8288H81.5019V7.2764H79.6871V10.1955H76.504V7.2764H74.7045V14.8288H76.504V11.73ZM88.2199 14.8437C88.5917 14.7336 88.8764 14.61 89.0749 14.4751C89.2735 14.3395 89.4474 14.1816 89.5959 14.0012C89.7447 13.8208 89.8364 13.6952 89.8709 13.6251C89.9058 13.5551 89.9329 13.4999 89.9529 13.4599V12.4666H88.6885V12.497C88.6782 12.5173 88.6637 12.547 88.644 12.5874C88.624 12.6271 88.6017 12.67 88.5769 12.7152C88.552 12.7601 88.5152 12.8127 88.4655 12.873C88.4161 12.9331 88.3609 12.9883 88.3015 13.0386C88.2424 13.0883 88.1705 13.1387 88.0862 13.1887C88.002 13.2391 87.9077 13.2846 87.8038 13.324C87.6995 13.3647 87.5775 13.3947 87.4387 13.4144C87.2999 13.435 87.1514 13.445 86.9926 13.445C86.3386 13.445 85.837 13.222 85.4903 12.7752C85.1433 12.3291 84.9696 11.7549 84.9696 11.0528C84.9696 10.351 85.1433 9.7742 85.4903 9.3233C85.837 8.8714 86.3386 8.646 86.9926 8.646C87.1811 8.646 87.3596 8.6632 87.5281 8.6987C87.6966 8.7338 87.8354 8.779 87.9448 8.8336C88.0536 8.8894 88.1534 8.9543 88.2424 9.0295C88.3319 9.1044 88.4035 9.1748 88.4578 9.24C88.5123 9.3052 88.5572 9.3678 88.5917 9.4285C88.6266 9.4885 88.6488 9.5331 88.6585 9.5634L88.6734 9.6235H89.9381V8.6312L89.8784 8.4805C89.829 8.3701 89.7347 8.2377 89.5959 8.0815C89.4565 7.9265 89.2857 7.7739 89.0824 7.6231C88.8793 7.4724 88.5917 7.3449 88.2199 7.2396C87.8483 7.1341 87.4387 7.0818 86.9926 7.0818C85.8221 7.0818 84.8906 7.4598 84.1965 8.2171C83.5022 8.9743 83.1552 9.9195 83.1552 11.0528C83.1552 12.1958 83.4874 13.1416 84.152 13.8882C84.816 14.6355 85.7631 15.0093 86.9926 15.0093C87.4387 15.0093 87.8483 14.9541 88.2199 14.8437ZM93.4943 8.7961H96.5289V14.8288H98.3433V7.2764H91.6944V14.8288H93.4943V8.7961ZM106.642 13.8663C107.342 13.1042 107.691 12.1613 107.691 11.038C107.691 9.915 107.342 8.9766 106.642 8.2245C105.943 7.4724 105.009 7.0963 103.839 7.0963C102.649 7.0963 101.706 7.4724 101.013 8.2245C100.319 8.9766 99.9718 9.915 99.9718 11.038C99.9718 12.1713 100.321 13.1167 101.02 13.8734C101.72 14.6306 102.659 15.0093 103.839 15.0093C105.009 15.0093 105.943 14.6281 106.642 13.8663ZM102.292 12.7375C101.955 12.2765 101.787 11.7094 101.787 11.038C101.787 10.3862 101.955 9.8291 102.292 9.3678C102.639 8.8969 103.155 8.6609 103.839 8.6609C104.523 8.6609 105.038 8.8969 105.386 9.3678C105.713 9.8391 105.877 10.3959 105.877 11.038C105.877 11.7094 105.713 12.2765 105.386 12.7375C105.038 13.2094 104.523 13.445 103.839 13.445C103.155 13.445 102.639 13.2094 102.292 12.7375ZM111.093 13.7155C111.688 14.578 112.536 15.0093 113.637 15.0093C114.668 15.0093 115.496 14.6281 116.121 13.8663C116.745 13.1042 117.058 12.1613 117.058 11.038C117.058 9.915 116.75 8.9766 116.136 8.2245C115.52 7.4724 114.688 7.0963 113.637 7.0963C112.526 7.0963 111.673 7.5376 111.078 8.4204L110.945 7.2764H109.294V18.5894H111.093V13.7155ZM111.658 12.7074C111.282 12.2365 111.093 11.6797 111.093 11.038C111.093 10.3959 111.282 9.8391 111.658 9.3678C112.025 8.9169 112.531 8.6909 113.176 8.6909C113.87 8.6909 114.385 8.9217 114.722 9.383C115.07 9.8546 115.243 10.4059 115.243 11.038C115.243 11.6797 115.07 12.2365 114.722 12.7074C114.375 13.1794 113.86 13.4144 113.176 13.4144C112.54 13.4144 112.035 13.1794 111.658 12.7074ZM122.012 8.7961H124.303V7.2764H117.922V8.7961H120.212V14.8288H122.012V8.7961ZM127.411 11.73H130.595V14.8288H132.409V7.2764H130.595V10.1955H127.411V7.2764H125.612V14.8288H127.411V11.73ZM139.995 14.0609C140.5 13.5699 140.754 12.9534 140.754 12.2116C140.754 11.4592 140.488 10.8546 139.958 10.3988C139.427 9.9421 138.651 9.7138 137.63 9.7138H136.276V7.2764H134.477V14.8288H137.6C138.671 14.8288 139.469 14.5732 139.995 14.0609ZM143.49 7.2764H141.69V14.8282H143.49V7.2764ZM137.467 11.1277C138.408 11.1277 138.879 11.4937 138.879 12.2262C138.879 13.0186 138.408 13.4144 137.467 13.4144H136.276V11.1277H137.467ZM150.711 5.7122C150.87 5.6021 151.009 5.4769 151.128 5.3364C151.247 5.1957 151.324 5.0863 151.358 5.0053C151.393 4.9249 151.42 4.8548 151.44 4.7948V3.8923H150.117C150.117 3.9623 150.092 4.0627 150.042 4.1934C149.992 4.3232 149.883 4.4639 149.715 4.6137C149.546 4.7644 149.343 4.84 149.105 4.84C148.847 4.84 148.634 4.7644 148.466 4.6137C148.297 4.4639 148.192 4.3261 148.154 4.2005C148.113 4.0756 148.094 3.9726 148.094 3.8923H146.77V4.7948C146.79 4.8548 146.817 4.9249 146.852 5.0053C146.887 5.0863 146.963 5.1957 147.082 5.3364C147.201 5.4769 147.34 5.6021 147.499 5.7122C147.657 5.8229 147.878 5.9204 148.161 6.0056C148.443 6.0908 148.758 6.1334 149.105 6.1334C149.452 6.1334 149.767 6.0908 150.05 6.0056C150.332 5.9204 150.553 5.8229 150.711 5.7122ZM150.697 9.8646V14.8288H152.511V7.2764H150.815L147.365 12.2262V7.2764H145.565V14.8288H147.246L150.697 9.8646ZM59.0057 28.7274H62.1891V31.8265H64.0035V24.2751H62.1891V27.1935H59.0057V24.2751H57.2061V31.8265H59.0057V28.7274ZM71.2021 26.8623V31.8265H73.0172V24.2751H71.3219L67.8706 29.2242V24.2751H66.071V31.8265H67.7515L71.2021 26.8623ZM80.7962 31.2555C81.3017 30.8743 81.5545 30.3123 81.5545 29.5699C81.5545 29.1486 81.4305 28.7858 81.1826 28.4795C80.935 28.1738 80.588 27.9556 80.1416 27.8249C80.8853 27.5243 81.2572 26.9927 81.2572 26.2309C81.2572 25.5889 81.0141 25.0979 80.5283 24.7561C80.0425 24.4158 79.3979 24.2444 78.5951 24.2444H75.0844V31.8265H78.7588C79.6109 31.8265 80.2904 31.6364 80.7962 31.2555ZM78.4011 25.5989C79.0661 25.5989 79.3979 25.8645 79.3979 26.3962C79.3979 26.9475 79.0661 27.2232 78.4011 27.2232H76.8546V25.5989H78.4011ZM78.4912 28.5925C79.2939 28.5925 79.6955 28.9036 79.6955 29.525C79.6955 30.1467 79.2939 30.4579 78.4912 30.4579H76.8546V28.5925H78.4912ZM87.9687 31.8643C88.3603 31.7688 88.6672 31.6613 88.8903 31.5412C89.1133 31.4205 89.3115 31.2849 89.4849 31.1345C89.6589 30.9837 89.7683 30.8791 89.8128 30.8185C89.8574 30.7584 89.889 30.7084 89.9097 30.6687V29.6754H88.6004L88.5856 29.7206C88.5659 29.7503 88.5362 29.7884 88.4965 29.8333C88.4568 29.8788 88.4071 29.9314 88.3477 29.9911C88.2883 30.0515 88.2082 30.1119 88.1098 30.1716C88.0104 30.2319 87.8961 30.2845 87.7673 30.3297C87.6385 30.3749 87.4823 30.413 87.2989 30.4424C87.1156 30.4727 86.92 30.4876 86.7114 30.4876C86.0665 30.4876 85.561 30.3023 85.1943 29.9314C84.8276 29.5605 84.6188 29.0492 84.5697 28.3968H89.9842L90.0582 27.5088C90.0582 26.4859 89.7654 25.6612 89.1805 25.0346C88.5956 24.4081 87.7176 24.0946 86.5481 24.0946C85.3676 24.0946 84.4403 24.4707 83.7663 25.2228C83.0916 25.9749 82.7549 26.9178 82.7549 28.0511C82.7549 29.2345 83.0949 30.19 83.7737 30.9166C84.4528 31.6435 85.4274 32.0073 86.6969 32.0073C87.1524 32.0073 87.5765 31.9595 87.9687 31.8643ZM86.5481 25.5989C87.1127 25.5989 87.5468 25.747 87.849 26.0424C88.1514 26.3387 88.3031 26.7119 88.3031 27.1635H84.6294C84.8467 26.1202 85.4868 25.5989 86.5481 25.5989ZM93.5637 30.7132C94.1593 31.576 95.0063 32.0073 96.1076 32.0073C97.1383 32.0073 97.9666 31.6264 98.5909 30.8636C99.2162 30.1018 99.5286 29.159 99.5286 28.0356C99.5286 26.913 99.221 25.9749 98.6058 25.2228C97.9918 24.4707 97.1583 24.0946 96.1076 24.0946C94.9966 24.0946 94.1441 24.5359 93.5489 25.4181L93.4149 24.2751H91.7638V35.5877H93.5637V30.7132ZM94.1292 29.7061C93.7522 29.2345 93.5637 28.6774 93.5637 28.0356C93.5637 27.3939 93.7522 26.8374 94.1292 26.3658C94.4959 25.9149 95.0014 25.6886 95.6467 25.6886C96.3404 25.6886 96.8559 25.9197 97.1929 26.3807C97.5399 26.8523 97.7139 27.4043 97.7139 28.0356C97.7139 28.6774 97.5399 29.2345 97.1929 29.7061C96.8459 30.1774 96.3304 30.413 95.6467 30.413C95.0114 30.413 94.5059 30.1774 94.1292 29.7061ZM105.829 31.8417C106.201 31.7316 106.486 31.608 106.684 31.4731C106.882 31.3378 107.056 31.1797 107.204 30.9992C107.354 30.8185 107.445 30.6935 107.48 30.6235C107.514 30.5531 107.541 30.4982 107.562 30.4579V29.4647H106.297V29.4953C106.288 29.515 106.273 29.545 106.253 29.5851C106.233 29.6251 106.211 29.668 106.186 29.7132C106.161 29.7584 106.124 29.811 106.074 29.8711C106.024 29.9314 105.971 29.9866 105.911 30.0366C105.851 30.087 105.779 30.1367 105.695 30.1871C105.61 30.2371 105.516 30.2826 105.412 30.3223C105.309 30.3627 105.187 30.3927 105.048 30.413C104.909 30.4327 104.76 30.4424 104.602 30.4424C103.948 30.4424 103.447 30.2193 103.099 29.7732C102.753 29.3271 102.579 28.7529 102.579 28.0511C102.579 27.3491 102.753 26.7722 103.099 26.321C103.447 25.8697 103.948 25.6441 104.602 25.6441C104.79 25.6441 104.969 25.6612 105.137 25.6967C105.306 25.7322 105.444 25.7767 105.554 25.8316C105.663 25.8871 105.762 25.952 105.851 26.0275C105.941 26.1024 106.013 26.1734 106.067 26.238C106.122 26.3032 106.166 26.3658 106.201 26.4262C106.236 26.4859 106.258 26.5314 106.268 26.5614L106.283 26.6218H107.547V25.6286L107.488 25.4788C107.438 25.3684 107.343 25.2351 107.204 25.0798C107.066 24.9242 106.895 24.7709 106.692 24.6208C106.488 24.4707 106.201 24.3426 105.829 24.2373C105.457 24.1318 105.048 24.0792 104.602 24.0792C103.431 24.0792 102.499 24.4584 101.805 25.2151C101.112 25.9723 100.765 26.9178 100.765 28.0511C100.765 29.1942 101.097 30.1396 101.761 30.8869C102.425 31.6338 103.372 32.0073 104.602 32.0073C105.048 32.0073 105.457 31.9518 105.829 31.8417ZM114.435 26.8623V31.8265H116.25V24.2751H114.554L111.103 29.2242V24.2751H109.304V31.8265H110.984L114.435 26.8623ZM121.642 25.7938H123.932V24.2751H117.551V25.7938H119.842V31.8265H121.642V25.7938ZM129.993 31.8643C130.385 31.7688 130.693 31.6613 130.916 31.5412C131.139 31.4205 131.337 31.2849 131.51 31.1345C131.684 30.9837 131.793 30.8791 131.838 30.8185C131.883 30.7584 131.914 30.7084 131.935 30.6687V29.6754H130.626L130.611 29.7206C130.591 29.7503 130.561 29.7884 130.521 29.8333C130.482 29.8788 130.432 29.9314 130.373 29.9911C130.313 30.0515 130.234 30.1119 130.135 30.1716C130.035 30.2319 129.921 30.2845 129.792 30.3297C129.664 30.3749 129.507 30.413 129.324 30.4424C129.14 30.4727 128.944 30.4876 128.737 30.4876C128.092 30.4876 127.586 30.3023 127.219 29.9314C126.852 29.5605 126.644 29.0492 126.595 28.3968H132.009L132.083 27.5088C132.083 26.4859 131.79 25.6612 131.205 25.0346C130.62 24.4081 129.743 24.0946 128.573 24.0946C127.393 24.0946 126.465 24.4707 125.791 25.2228C125.117 25.9749 124.78 26.9178 124.78 28.0511C124.78 29.2345 125.12 30.19 125.799 30.9166C126.478 31.6435 127.452 32.0073 128.721 32.0073C129.178 32.0073 129.601 31.9595 129.993 31.8643ZM128.573 25.5989C129.138 25.5989 129.572 25.747 129.874 26.0424C130.176 26.3387 130.328 26.7119 130.328 27.1635H126.654C126.872 26.1202 127.512 25.5989 128.573 25.5989ZM137.127 25.7938H139.418V24.2751H133.036V25.7938H135.327V31.8265H137.127V25.7938ZM12.7606 8.148L5.77279 3.5969C5.72209 3.5633 5.66299 3.5459 5.60229 3.5459H3.97479C3.80179 3.5459 3.66199 3.6863 3.66199 3.8597V5.0195C3.66199 5.125 3.71529 5.2248 3.80469 5.2822L11.3497 10.1851C11.4923 10.2774 11.6825 10.2397 11.7787 10.0999L12.8429 8.5499C12.9252 8.4133 12.9107 8.259 12.7606 8.148ZM35.5395 23.8593L31.6328 21.1217C31.4901 21.0213 31.2938 21.0575 31.1954 21.2005L30.1492 22.7244C30.0514 22.8671 30.0872 23.0614 30.2289 23.1595L35.1822 26.5763C35.3898 26.7193 35.6728 26.5705 35.6728 26.3177V24.116C35.6728 24.014 35.6235 23.9184 35.5395 23.8593ZM15.9669 25.3771L14.4165 24.3106C14.2739 24.2128 14.0789 24.2489 13.9808 24.3916L6.64909 35.0671C6.50609 35.2743 6.65489 35.5577 6.90699 35.5577H9.15209C9.25509 35.5577 9.35189 35.507 9.40999 35.4218L16.0418 25.7654C16.1177 25.6186 16.0938 25.4888 15.9669 25.3771ZM16.098 16.448L4.15199 8.2322C3.94439 8.0889 3.66199 8.2377 3.66199 8.4905V10.7365C3.66199 10.8398 3.71269 10.9366 3.79759 10.9947L12.6234 17.0652C12.7661 17.163 12.8026 17.3583 12.7048 17.5009L3.71659 30.5835C3.68099 30.6354 3.66199 30.6974 3.66199 30.7607V33.1103V34.1319C3.66199 34.4402 4.05969 34.5632 4.23299 34.3085L16.1719 16.8289C16.2523 16.6901 16.2151 16.5422 16.098 16.448ZM23.3202 24.4203L35.1825 32.5764C35.3904 32.7187 35.6728 32.5699 35.6728 32.3182V30.067C35.6728 29.9637 35.6222 29.8672 35.5373 29.8091L22.7052 20.9913C22.5629 20.8932 22.3676 20.93 22.2698 21.072L12.6583 35.0671C12.5156 35.2743 12.6644 35.5577 12.9159 35.5577H15.1612C15.2642 35.5577 15.3607 35.507 15.4188 35.4218L22.9276 24.4885C23.0351 24.3568 23.173 24.3313 23.3202 24.4203Z" fill="#FEFEFE"/>
</svg>
